<?xml version="1.0" encoding="UTF-8" standalone="no"?>
<!-- Generator: Adobe Illustrator 21.1.0, SVG Export Plug-In . SVG Version: 6.00 Build 0)  -->

<svg
   xmlns:dc="http://purl.org/dc/elements/1.1/"
   xmlns:cc="http://creativecommons.org/ns#"
   xmlns:rdf="http://www.w3.org/1999/02/22-rdf-syntax-ns#"
   xmlns:svg="http://www.w3.org/2000/svg"
   xmlns="http://www.w3.org/2000/svg"
   xmlns:sodipodi="http://sodipodi.sourceforge.net/DTD/sodipodi-0.dtd"
   xmlns:inkscape="http://www.inkscape.org/namespaces/inkscape"
   version="1.1"
   id="become-a-patron"
   x="0px"
   y="0px"
   viewBox="0 0 234 54"
   xml:space="preserve"
   sodipodi:docname="patreon_button.svg"
   width="234"
   height="54"
   inkscape:version="0.92.3 (2405546, 2018-03-11)"><metadata
   id="metadata859"><rdf:RDF><cc:Work
       rdf:about=""><dc:format>image/svg+xml</dc:format><dc:type
         rdf:resource="http://purl.org/dc/dcmitype/StillImage" /><dc:title></dc:title></cc:Work></rdf:RDF></metadata><defs
   id="defs857" /><sodipodi:namedview
   pagecolor="#ffffff"
   bordercolor="#666666"
   borderopacity="1"
   objecttolerance="10"
   gridtolerance="10"
   guidetolerance="10"
   inkscape:pageopacity="0"
   inkscape:pageshadow="2"
   inkscape:window-width="640"
   inkscape:window-height="480"
   id="namedview855"
   showgrid="false"
   fit-margin-top="0"
   fit-margin-left="0"
   fit-margin-right="0"
   fit-margin-bottom="0"
   inkscape:zoom="1.5753846"
   inkscape:cx="326"
   inkscape:cy="75"
   inkscape:current-layer="become-a-patron" />
<style
   type="text/css"
   id="style815">
	.st0{fill:#F96854;}
	.st1{fill:#FFFFFF;}
	.st2{fill:#052D49;}
</style>
<g
   id="become-a-patron_1_"
   transform="matrix(0.36,0,0,0.36,0.36,0)">
	<rect
   x="-1"
   class="st0"
   width="650"
   height="150"
   id="rect817"
   y="0"
   style="fill:#f96854" />
	<g
   id="g823">
		<path
   class="st1"
   d="m 87,46 c -12,0 -21.8,9.8 -21.8,21.8 0,12 9.8,21.7 21.8,21.7 12,0 21.7,-9.7 21.7,-21.7 C 108.7,55.8 99,46 87,46"
   id="path819"
   inkscape:connector-curvature="0"
   style="fill:#ffffff" />
		<polygon
   class="st2"
   points="48.3,46 48.3,104 58.9,104 58.9,46 "
   id="polygon821"
   style="fill:#052d49" />
	</g>
	<g
   id="g851">
		<path
   class="st1"
   d="m 146.8,55.6 h 13.1 c 3.6,0 6.8,0.1 8.8,0.8 4.2,1.3 5.9,4.7 5.9,7.9 0,1.8 -0.5,2.9 -0.6,3.3 -1.5,3.5 -4.8,4.1 -6.6,4.5 2.1,0.3 4.8,0.8 6.7,2.9 1.2,1.3 1.9,3.2 1.9,5.1 0,2.6 -1.4,6.3 -5.6,8.2 -2.5,1.1 -5.3,1.2 -9.2,1.2 H 146.9 V 55.6 Z m 8,6.3 V 69 h 6.4 c 1.9,0 5,-0.1 5,-3.6 0,-3.3 -2.8,-3.4 -4.5,-3.4 h -6.9 z m 0,13.2 v 8.2 h 5.9 c 2.8,0 6.5,-0.1 6.5,-4 0,-4.1 -3.4,-4.1 -5.1,-4.2 z"
   id="path825"
   inkscape:connector-curvature="0"
   style="fill:#ffffff" />
		<path
   class="st1"
   d="m 179.8,55.6 h 25.1 v 6.6 h -16.6 v 6.1 h 15.5 v 6.4 h -15.5 v 8.1 h 18.1 v 6.7 H 179.9 V 55.6 Z"
   id="path827"
   inkscape:connector-curvature="0"
   style="fill:#ffffff" />
		<path
   class="st1"
   d="m 238.2,81.7 c -1.2,2 -2.4,3.9 -5.1,5.8 -1.4,1 -4.8,3 -9.5,3 -9,0 -16.2,-6.5 -16.2,-18 0,-10 6.8,-18 16.4,-18 3.9,0 7.3,1.3 9.9,3.4 2.4,1.9 3.5,3.7 4.4,5.4 l -6.7,3.4 c -0.5,-1.1 -1.1,-2.3 -2.5,-3.5 -1.6,-1.3 -3.3,-1.7 -4.7,-1.7 -5.5,0 -8.4,5.1 -8.4,10.8 0,7.4 3.8,11.1 8.4,11.1 4.4,0 6.2,-3.1 7.3,-5 z"
   id="path829"
   inkscape:connector-curvature="0"
   style="fill:#ffffff" />
		<path
   class="st1"
   d="m 256.4,90.4 c -10.8,0 -16.8,-8.3 -16.8,-18 0,-9.2 5.8,-17.9 16.7,-17.9 2,0 4.1,0.3 6.2,1 10.4,3.6 11,14.9 11,17.2 0,5.9 -2.7,11.1 -6.4,14.2 -3.4,2.7 -7.2,3.5 -10.7,3.5 z m 5.8,-26.3 c -1.4,-1.5 -3.6,-2.5 -6,-2.5 -5.1,0 -8.4,4.5 -8.4,10.7 0,8.1 4.5,11 8.5,11 4,0 8.4,-2.9 8.6,-10 0.2,-3.6 -0.7,-7.2 -2.7,-9.2 z"
   id="path831"
   inkscape:connector-curvature="0"
   style="fill:#ffffff" />
		<path
   class="st1"
   d="m 314.2,55.6 v 33.9 h -8.1 l 0.5,-24.1 0.1,-3.4 -0.3,1.2 c -0.4,1.9 -0.5,2.2 -0.9,3.6 l -6.4,22.8 h -7.3 l -6.1,-21.8 -1.5,-6 c 0.1,2.7 0.1,3.3 0.3,6.5 l 0.4,21.4 h -8.2 V 55.6 h 12.4 l 5.2,19 1.2,5.4 c 0.5,-2.4 0.5,-2.6 0.9,-4.2 l 5.4,-20.3 h 12.4 z"
   id="path833"
   inkscape:connector-curvature="0"
   style="fill:#ffffff" />
		<path
   class="st1"
   d="m 320.8,55.6 h 25.1 v 6.6 h -16.6 v 6.1 h 15.5 v 6.4 h -15.5 v 8.1 h 18.1 v 6.7 H 320.9 V 55.6 Z"
   id="path835"
   inkscape:connector-curvature="0"
   style="fill:#ffffff" />
		<path
   class="st1"
   d="m 380.8,55.6 12.5,33.9 h -9 l -1.7,-5.4 h -12.5 l -1.7,5.4 h -9 L 372,55.6 Z m -4.6,8 c -0.4,1.7 -0.9,3.5 -1.4,5.2 -0.7,2.5 -2,6.5 -2.8,9.1 h 8.6 z"
   id="path837"
   inkscape:connector-curvature="0"
   style="fill:#ffffff" />
		<path
   class="st1"
   d="m 407.5,55.6 h 13.6 c 5.6,0 10.5,0 13.5,4.3 1.3,1.9 1.9,4.7 1.9,7 0,1.9 -0.4,3.7 -1.2,5.3 -2.9,6 -9.2,6.2 -13.8,6.3 H 416 v 11.1 h -8.5 z m 8.5,6.2 v 10.3 h 5.1 c 3.2,0 7,-0.1 7,-5.3 0,-4.9 -4.3,-4.9 -6.7,-4.9 H 416 Z"
   id="path839"
   inkscape:connector-curvature="0"
   style="fill:#ffffff" />
		<path
   class="st1"
   d="m 453.7,55.6 12.5,33.9 h -9 l -1.7,-5.4 H 443 l -1.7,5.4 h -9 l 12.6,-33.9 z m -4.5,8 c -0.4,1.7 -0.9,3.5 -1.4,5.2 -0.7,2.5 -2,6.5 -2.8,9.1 h 8.6 z"
   id="path841"
   inkscape:connector-curvature="0"
   style="fill:#ffffff" />
		<path
   class="st1"
   d="m 461.7,55.5 h 26.1 v 6.7 H 479 v 27.2 h -8.5 V 62.3 h -8.8 z"
   id="path843"
   inkscape:connector-curvature="0"
   style="fill:#ffffff" />
		<path
   class="st1"
   d="m 490.5,55.6 h 15.3 c 3.6,0 8,0.1 11.1,3.5 1.6,1.8 2.7,4.5 2.7,7.5 0,6.8 -4.7,8.5 -7,9.4 l 7.8,13.5 H 511 L 504.3,77.4 H 499 v 12.1 h -8.5 z m 8.5,6.3 v 9.2 h 7 c 1.2,0 5.1,-0.1 5.1,-4.7 0,-4.3 -3.1,-4.5 -4.9,-4.5 z"
   id="path845"
   inkscape:connector-curvature="0"
   style="fill:#ffffff" />
		<path
   class="st1"
   d="m 539.1,90.4 c -10.8,0 -16.8,-8.3 -16.8,-18 0,-9.2 5.8,-17.9 16.7,-17.9 2,0 4.1,0.3 6.2,1 10.4,3.6 11,14.9 11,17.2 0,5.9 -2.7,11.1 -6.4,14.2 -3.3,2.7 -7.2,3.5 -10.7,3.5 z M 545,64.1 c -1.4,-1.5 -3.6,-2.5 -6,-2.5 -5.1,0 -8.4,4.5 -8.4,10.7 0,8.1 4.5,11 8.5,11 4,0 8.4,-2.9 8.6,-10 0.2,-3.6 -0.8,-7.2 -2.7,-9.2 z"
   id="path847"
   inkscape:connector-curvature="0"
   style="fill:#ffffff" />
		<path
   class="st1"
   d="m 559.5,55.6 h 8.3 l 7.3,12.5 c 2.7,4.8 3.5,6.3 5.1,9.3 l -0.4,-21.7 h 8.1 v 33.9 h -8.3 l -6.3,-10.7 c -3.1,-5 -3.6,-6.1 -6,-10.6 l 0.2,21.3 h -8.1 v -34 z"
   id="path849"
   inkscape:connector-curvature="0"
   style="fill:#ffffff" />
	</g>
</g>
</svg>